<svg data-v-423bf9ae="" xmlns="http://www.w3.org/2000/svg" viewBox="0 0 280.3539971784742 60" class="font"><!----><!----><!----><g data-v-423bf9ae="" id="711b234b-bec1-450a-8c6d-8e3191121fe6" fill="#E00C0C" transform="matrix(5.309734871770462,0,0,5.309734871770462,-0.6902689390529702,-18.265488739553014)"><path d="M6.10 6.26C5.77 6.26 5.73 6.43 5.73 6.57L5.73 7.00C5.73 7.45 5.43 7.46 5.19 7.46L3.05 7.46C2.79 7.46 2.77 7.29 2.77 7.15L2.77 5.04C2.77 4.77 2.80 4.51 3.21 4.51L5.84 4.51C6.27 4.51 6.23 4.56 6.93 5.81C7 5.91 7.08 6.06 7.32 6.06C7.56 6.06 7.62 5.94 7.62 5.85C7.62 5.78 7.34 4.62 7.21 3.99C7.17 3.85 7.10 3.77 6.90 3.77L0.46 3.77C0.34 3.77 0.20 3.79 0.20 4.07C0.20 4.48 0.57 4.38 1.12 4.47C1.43 4.52 1.50 4.54 1.50 4.75L1.50 12.04C1.50 12.35 1.46 12.49 1.19 12.59C0.27 12.94 0.13 12.94 0.13 13.19C0.13 13.26 0.20 13.61 0.46 13.61C0.71 13.61 1.15 13.44 2.20 13.44L7.01 13.44C7.31 13.44 7.39 13.37 7.43 13.16C7.85 11.28 7.87 11.26 7.87 11.17L7.87 11.16C7.87 10.92 7.71 10.84 7.62 10.84C7.57 10.84 7.53 10.85 7.48 10.88C7.25 11.02 6.76 12.18 6.51 12.38C6.23 12.59 4.94 12.67 4.49 12.67C4.06 12.67 3.63 12.64 3.19 12.57C2.79 12.52 2.74 12.29 2.74 12.04L2.74 8.83C2.74 8.30 3.11 8.27 3.43 8.27L5.36 8.27C5.56 8.27 5.73 8.30 5.73 8.58L5.73 9.34C5.73 9.46 5.75 9.65 6.10 9.65C6.47 9.65 6.50 9.39 6.50 9.24L6.50 6.66C6.50 6.51 6.47 6.26 6.10 6.26ZM11.42 8.08C11.94 8.08 12.50 8.22 12.92 8.61C13.06 8.75 13.06 8.85 13.06 8.95L13.06 12.08C13.06 12.19 13.05 12.29 13.02 12.40C12.91 12.77 12.24 13.01 11.70 13.01C10.74 13.01 9.27 12.15 9.27 10.42C9.27 9.00 10.00 8.08 11.42 8.08ZM11.45 7.52L11.44 7.52C9.23 7.52 8.33 9.09 8.33 10.54C8.33 12.31 9.55 13.73 11.38 13.73C12.47 13.73 13.01 13.19 13.05 13.19C13.06 13.19 13.08 13.20 13.08 13.23L13.08 13.69C13.08 13.82 13.15 13.83 13.19 13.83C13.33 13.83 13.51 13.57 14.15 13.22C14.71 12.89 14.98 12.89 14.98 12.68C14.98 12.49 14.73 12.49 14.71 12.49C14.21 12.46 14.07 12.50 14.06 12.29C14.04 12.17 14.01 9.56 14.01 8.18C14.01 5.46 14.06 4.10 14.06 3.64C14.06 3.53 14 3.44 13.89 3.44C13.83 3.44 13.57 3.57 12.08 4.30C12.04 4.33 11.96 4.37 11.96 4.45C11.96 4.59 12.12 4.65 12.22 4.68C12.96 4.97 13.06 4.97 13.06 5.25L13.06 7.60C13.06 7.67 13.03 7.73 12.96 7.73C12.89 7.73 12.36 7.52 11.45 7.52ZM20.03 12.98C20.05 12.98 20.08 12.98 20.08 13.03L20.08 13.36C20.08 13.50 20.10 13.64 20.27 13.64C20.33 13.64 20.38 13.61 20.43 13.58C21.63 12.92 21.83 13.24 21.83 12.82C21.83 12.74 21.81 12.70 21.71 12.66C21.10 12.36 21.01 12.40 21.01 12.24L21.01 7.85C21.01 7.71 21 7.57 20.80 7.57C20.62 7.57 20.45 7.59 19.08 7.63C18.97 7.64 18.89 7.69 18.89 7.87C18.89 8.01 18.96 8.06 19.10 8.09C19.81 8.22 20.02 8.20 20.02 8.60L20.02 12.04C20.02 12.21 19.99 12.22 19.78 12.46C19.53 12.71 19.12 12.96 18.59 12.96C17.85 12.96 17.33 12.46 17.11 12.03C16.86 11.52 16.86 11.00 16.86 10.58L16.86 7.71C16.86 7.62 16.83 7.55 16.72 7.55C16.58 7.55 16.42 7.56 15.26 7.63C15.12 7.64 15.11 7.73 15.11 7.83L15.11 7.87C15.11 8.11 15.29 8.05 15.54 8.16C15.92 8.30 15.92 8.43 15.92 8.55C15.92 8.78 15.90 10.36 15.90 10.81C15.90 11.10 15.92 11.38 15.95 11.66C16.11 12.95 16.95 13.69 18.09 13.69C19.25 13.69 19.96 12.98 20.03 12.98ZM32.24 6.47C32.24 7.83 30.84 8.74 28.78 8.74C28.31 8.74 28.27 8.72 28.27 8.57L28.27 4.58C28.27 4.41 28.35 4.37 29.12 4.37C31.11 4.37 32.24 5.31 32.24 6.47ZM26.54 3.88L26.19 3.88C25.98 3.88 25.89 3.98 25.89 4.19C25.89 4.54 26.08 4.55 26.22 4.55L26.73 4.55C27.02 4.55 27.03 4.75 27.03 4.91L27.03 12.40C27.03 12.63 26.96 12.74 26.64 12.78C25.91 12.85 25.77 12.80 25.77 13.19C25.77 13.34 25.83 13.52 26.05 13.52C26.12 13.52 26.95 13.44 28.00 13.44C29.02 13.44 29.86 13.52 29.93 13.52C30.16 13.52 30.20 13.36 30.20 13.19L30.20 13.17C30.20 12.75 30.02 12.84 28.69 12.78C28.32 12.75 28.24 12.60 28.24 12.29L28.24 9.45C28.24 9.31 28.28 9.23 28.42 9.23L28.84 9.23C30.58 9.23 31.46 8.95 31.99 8.65C32.76 8.25 33.40 7.46 33.42 6.41L33.42 6.40C33.42 5.71 33.11 5.04 32.61 4.58C31.93 3.98 31.04 3.74 29.88 3.74C28.87 3.74 27.87 3.88 26.54 3.88ZM35.04 4.79C35.04 5.17 35.34 5.45 35.70 5.45C36.06 5.45 36.39 5.15 36.39 4.77C36.39 4.42 36.08 4.13 35.71 4.13C35.35 4.13 35.04 4.42 35.04 4.79ZM34.90 11.75L34.90 12.40C34.90 12.66 34.87 12.85 34.52 12.91C33.89 12.99 33.84 12.96 33.84 13.29C33.84 13.43 33.91 13.52 34.05 13.52C34.09 13.52 34.64 13.44 35.34 13.44C36.02 13.44 36.58 13.52 36.62 13.52C36.78 13.52 36.79 13.33 36.79 13.22C36.79 12.98 36.62 12.99 36.16 12.92C35.85 12.88 35.84 12.84 35.84 11.13L35.84 10.67C35.84 8.96 35.92 7.60 35.92 7.49C35.92 7.32 35.81 7.27 35.73 7.27L35.71 7.27C35.64 7.27 35.63 7.29 34.17 7.99C34.02 8.06 33.80 8.12 33.80 8.29C33.80 8.40 33.89 8.44 33.96 8.47C34.86 8.83 34.92 8.82 34.92 9.04C34.92 9.31 34.90 10.12 34.90 11.75ZM37.90 7.08C37.79 7.08 37.67 7.13 37.67 7.29L37.67 7.71C37.67 8.53 37.53 9.10 37.53 9.14C37.53 9.28 37.72 9.32 37.79 9.32C37.98 9.32 38.01 9.14 38.02 9.10C38.15 8.55 38.14 8.47 38.33 8.47L40.00 8.47C40.14 8.47 40.28 8.51 40.28 8.67C40.28 8.74 40.24 8.81 40.19 8.85L37.34 12.70C37.27 12.81 37.16 12.95 37.16 13.12C37.16 13.24 37.21 13.44 37.58 13.44L40.82 13.44C40.95 13.44 41.06 13.45 41.06 13.65L41.06 14.49C41.06 14.63 41.10 14.74 41.30 14.74C41.58 14.74 41.72 14.67 41.72 14.46C41.72 14.38 41.71 14.15 41.71 13.71C41.71 12.59 41.89 11.76 41.89 11.70C41.89 11.51 41.65 11.47 41.55 11.47C41.36 11.47 41.33 11.65 41.31 11.69C41.17 12.40 41.20 12.54 40.94 12.54C40.89 12.54 40.81 12.53 40.73 12.53L38.70 12.53C38.58 12.53 38.47 12.52 38.47 12.38C38.47 12.28 38.49 12.31 41.65 8.01C41.68 7.95 41.73 7.90 41.73 7.81C41.73 7.66 41.59 7.60 41.43 7.60L38.37 7.60C38.02 7.60 38.30 7.08 37.98 7.08ZM42.95 7.08C42.84 7.08 42.73 7.13 42.73 7.29L42.73 7.71C42.73 8.53 42.59 9.10 42.59 9.14C42.59 9.28 42.77 9.32 42.84 9.32C43.04 9.32 43.06 9.14 43.08 9.10C43.20 8.55 43.19 8.47 43.39 8.47L45.05 8.47C45.19 8.47 45.33 8.51 45.33 8.67C45.33 8.74 45.29 8.81 45.25 8.85L42.39 12.70C42.32 12.81 42.21 12.95 42.21 13.12C42.21 13.24 42.27 13.44 42.63 13.44L45.88 13.44C46.00 13.44 46.12 13.45 46.12 13.65L46.12 14.49C46.12 14.63 46.16 14.74 46.35 14.74C46.63 14.74 46.77 14.67 46.77 14.46C46.77 14.38 46.76 14.15 46.76 13.71C46.76 12.59 46.94 11.76 46.94 11.70C46.94 11.51 46.70 11.47 46.61 11.47C46.41 11.47 46.38 11.65 46.37 11.69C46.23 12.40 46.26 12.54 45.99 12.54C45.95 12.54 45.86 12.53 45.78 12.53L43.75 12.53C43.64 12.53 43.53 12.52 43.53 12.38C43.53 12.28 43.54 12.31 46.70 8.01C46.73 7.95 46.79 7.90 46.79 7.81C46.79 7.66 46.65 7.60 46.48 7.60L43.43 7.60C43.08 7.60 43.36 7.08 43.04 7.08ZM47.50 8.61C47.50 8.93 47.80 9.11 48.06 9.11C48.24 9.11 48.33 9.02 48.37 8.96C48.40 8.90 48.78 8.02 49.57 8.02C49.94 8.02 50.22 8.22 50.39 8.40C50.67 8.72 50.72 9.07 50.72 9.52L50.72 10.02C50.72 10.12 50.71 10.19 50.61 10.22C50.58 10.23 48.90 10.29 48.15 10.89C47.81 11.16 47.56 11.61 47.56 12.14L47.56 12.15C47.56 13.01 48.19 13.72 49.15 13.72C49.67 13.72 50.13 13.54 50.46 13.33C50.81 13.09 50.76 13.02 50.83 13.02C50.85 13.02 50.85 13.03 50.86 13.03C50.89 13.05 51.23 13.61 51.86 13.61C52.58 13.61 52.93 12.82 52.93 12.50C52.93 12.38 52.86 12.32 52.81 12.32C52.60 12.32 52.63 12.78 52.19 12.78C52.05 12.78 51.72 12.71 51.72 12.17L51.72 9.41C51.72 9.24 51.70 9.07 51.69 8.90C51.55 7.53 50.19 7.36 49.66 7.36C48.50 7.36 47.50 8.11 47.50 8.61ZM49.49 12.95C49.31 12.95 49.06 12.92 48.89 12.77C48.66 12.57 48.59 12.22 48.59 12.00C48.59 11.65 48.75 11.40 48.93 11.24C49.39 10.81 50.34 10.74 50.60 10.74C50.72 10.74 50.74 10.81 50.74 11.14L50.74 11.72L50.74 12.05C50.74 12.18 50.72 12.28 50.65 12.38C50.58 12.47 50.18 12.95 49.49 12.95Z"></path></g><!----><!----></svg>